<svg width="24" height="24" viewBox="0 0 24 24" fill="none" xmlns="http://www.w3.org/2000/svg">
    <style>
        g { fill: #141414; }
        @media (prefers-color-scheme: dark) {
            g { fill: #ffffff; }
        }
    </style>
    <g clip-path="url(#a)" fill-rule="evenodd" clip-rule="evenodd">
        <path d="M17.521.238C4.454-.15 3.365-.15 1.807.902-.016 2.14.244 3.987.231 5.967.135 20.076-.165 23.535 4.071 23.68c3.014.123 15.769.842 17.976-.396 1.74-.969 1.656-2.985 1.672-5.7C23.81.918 24.801.457 17.521.238m5.013 2.46c.296 3.298.324 6.614.086 9.917-.03 9.66.591 9.985-4.288 10.076-2.72.06-5.435.079-8.128-.023-9.47-.396-8.527 1.149-8.699-10.327 0-.622-.146-8.425.068-9.198.393-1.407 1.79-1.824 3.248-1.972.607-.058 14.69-.232 16.249.226A1.95 1.95 0 0 1 22.554 2.7z"/>
        <path d="M4.39 4.08c.932.65 1.61 1.201 2.802 1.993 1.193.792 1.178.454.078 1.042C4.332 8.7 4.077 8.89 4.282 9.298c.206.41.362.323 3.035-.875 3.335-1.49 4.966-1.336-2.534-5.017a.39.39 0 1 0-.393.674m12.068 5.708a.41.41 0 1 0-.015-.818 15.5 15.5 0 0 0-5.19.057c-.729-.023-1.25 1.728 5.205.761"/>
    </g>
    <defs>
        <clipPath id="a">
            <path fill="#fff" d="M0 0h24v24H0z"/>
        </clipPath>
    </defs>
</svg>
